# xmcd
#
# Track frame offsets:
#	150
#	27926
#	56451
#	77057
#	103358
#	125198
#	150771
#	181716
#	192420
#	216803
#	236388
#	260245
#	290302
#
# Disc length: 4146 seconds
#
# Revision: 1
# Processed by: cddbd v1.5.2PL0 Copyright (c) Steve Scherf et al.
# Submitted via: audiograbber 1.83.01
#
DISCID=b310300d
DTITLE=Walter Trout and The Radicals - Relentless (SACD)
DYEAR=2003
DGENRE=Blues
TTITLE0=I'm Tired
TTITLE1=The Life I Chose
TTITLE2=Jericho Road
TTITLE3=Work No More
TTITLE4=Cry If You Want To
TTITLE5=Chatroom Girl
TTITLE6=My Heart Is True
TTITLE7=Lonely Tonight
TTITLE8=Helpin' Hand
TTITLE9=Collingswood
TTITLE10=Empty Eyes
TTITLE11=The Best You Got
TTITLE12=Mercy
EXTD=
EXTT0=
EXTT1=
EXTT2=
EXTT3=
EXTT4=
EXTT5=
EXTT6=
EXTT7=
EXTT8=
EXTT9=
EXTT10=
EXTT11=
EXTT12=
PLAYORDER=
